<svg width="664" height="664" viewBox="0 0 664 664" fill="none" xmlns="http://www.w3.org/2000/svg">
<mask id="mask0_13_299" style="mask-type:alpha" maskUnits="userSpaceOnUse" x="0" y="0" width="664" height="664">
<rect width="664" height="664" fill="#D9D9D9"/>
</mask>
<g mask="url(#mask0_13_299)">
<circle cx="332" cy="332" r="249" fill="url(#paint0_linear_13_299)" stroke="url(#paint1_linear_13_299)" stroke-width="20"/>
<circle cx="332" cy="332" r="327" transform="rotate(90 332 332)" stroke="url(#paint2_linear_13_299)" stroke-width="10"/>
<circle cx="332.5" cy="332.5" r="283" transform="rotate(-134.549 332.5 332.5)" stroke="url(#paint3_linear_13_299)" stroke-width="25"/>
<g style="mix-blend-mode:overlay">
<path d="M166.656 477.622H148C148 448.067 153.775 419.339 165.101 392.471C169.543 382.137 174.652 372.217 180.648 362.503L183.091 358.576L187.978 358.163C197.528 357.543 212.63 355.682 229.732 349.895C254.607 341.628 274.818 328.401 289.92 310.627C301.692 296.779 309.909 280.865 314.351 263.091L294.362 197.781L313.241 186L318.571 189.72C330.786 198.194 343.668 206.254 356.994 213.075C365.434 217.622 374.318 221.755 383.201 225.475C400.303 224.855 417.627 223.202 434.506 220.929C455.605 218.035 476.705 214.108 497.36 208.941L505.799 206.874L508.687 214.728C513.795 229.196 516.016 244.076 515.128 259.164C514.461 273.425 510.908 287.272 504.911 300.293L487.81 293.472C492.918 282.312 495.805 270.325 496.471 258.131C497.138 248.003 496.027 237.876 493.362 227.956C474.928 232.296 456.05 235.809 437.171 238.289C418.959 240.77 400.303 242.216 381.647 243.043H379.426L377.427 242.216C367.433 237.876 357.438 233.329 347.666 228.162C337.449 222.789 327.233 216.795 317.461 210.388L333.896 262.677L333.452 264.744C328.343 286.032 318.793 305.046 304.801 321.374C287.477 341.835 264.379 356.716 236.173 366.223C219.738 371.597 205.079 374.077 194.418 375.11C189.976 382.757 185.979 390.818 182.425 398.878C171.987 423.679 166.656 450.134 166.656 477.622Z" fill="url(#paint4_linear_13_299)" fill-opacity="0.5"/>
<path d="M216.406 477.622V474.109C216.406 465.428 218.849 458.815 223.513 454.681C230.843 448.481 241.725 448.894 242.392 448.894H242.614H376.539H376.983H377.649C378.315 448.894 387.199 448.274 393.64 453.854C399.193 458.608 402.08 466.462 402.08 477.622H420.736C420.736 461.295 415.628 448.894 405.856 440.627C394.084 430.913 379.648 431.327 376.094 431.533H243.724C240.393 431.327 223.735 431.12 211.076 441.66C202.192 449.101 197.75 460.055 197.75 473.902V477.416H216.406V477.622Z" fill="url(#paint5_linear_13_299)" fill-opacity="0.5"/>
<path d="M436.727 354.029C449.165 393.711 454.939 435.253 454.273 477.622H472.929C473.595 433.6 467.377 390.404 454.717 349.069C452.052 340.595 449.165 332.121 445.833 323.854L485.811 339.148L492.918 323.027L437.838 301.946L423.401 317.86L425.4 322.614C429.62 332.948 433.396 343.489 436.727 354.029Z" fill="url(#paint6_linear_13_299)" fill-opacity="0.5"/>
</g>
<g style="mix-blend-mode:overlay">
<path d="M166.656 477.622H148C148 448.067 153.775 419.339 165.101 392.471C169.543 382.137 174.652 372.217 180.648 362.503L183.091 358.576L187.978 358.163C197.528 357.543 212.63 355.682 229.732 349.895C254.607 341.628 274.818 328.401 289.92 310.627C301.692 296.779 309.909 280.865 314.351 263.091L294.362 197.781L313.241 186L318.571 189.72C330.786 198.194 343.668 206.254 356.994 213.075C365.434 217.622 374.318 221.755 383.201 225.475C400.303 224.855 417.627 223.202 434.506 220.929C455.605 218.035 476.705 214.108 497.36 208.941L505.799 206.874L508.687 214.728C513.795 229.196 516.016 244.076 515.128 259.164C514.461 273.425 510.908 287.272 504.911 300.293L487.81 293.472C492.918 282.312 495.805 270.325 496.471 258.131C497.138 248.003 496.027 237.876 493.362 227.956C474.928 232.296 456.05 235.809 437.171 238.289C418.959 240.77 400.303 242.216 381.647 243.043H379.426L377.427 242.216C367.433 237.876 357.438 233.329 347.666 228.162C337.449 222.789 327.233 216.795 317.461 210.388L333.896 262.677L333.452 264.744C328.343 286.032 318.793 305.046 304.801 321.374C287.477 341.835 264.379 356.716 236.173 366.223C219.738 371.597 205.079 374.077 194.418 375.11C189.976 382.757 185.979 390.818 182.425 398.878C171.987 423.679 166.656 450.134 166.656 477.622Z" fill="url(#paint7_linear_13_299)" fill-opacity="0.5"/>
<path d="M216.406 477.622V474.109C216.406 465.428 218.849 458.815 223.513 454.681C230.843 448.481 241.725 448.894 242.392 448.894H242.614H376.539H376.983H377.649C378.315 448.894 387.199 448.274 393.64 453.854C399.193 458.608 402.08 466.462 402.08 477.622H420.736C420.736 461.295 415.628 448.894 405.856 440.627C394.084 430.913 379.648 431.327 376.094 431.533H243.724C240.393 431.327 223.735 431.12 211.076 441.66C202.192 449.101 197.75 460.055 197.75 473.902V477.416H216.406V477.622Z" fill="url(#paint8_linear_13_299)" fill-opacity="0.5"/>
<path d="M436.727 354.029C449.165 393.711 454.939 435.253 454.273 477.622H472.929C473.595 433.6 467.377 390.404 454.717 349.069C452.052 340.595 449.165 332.121 445.833 323.854L485.811 339.148L492.918 323.027L437.838 301.946L423.401 317.86L425.4 322.614C429.62 332.948 433.396 343.489 436.727 354.029Z" fill="url(#paint9_linear_13_299)" fill-opacity="0.5"/>
</g>
<g style="mix-blend-mode:overlay">
<path d="M166.656 477.622H148C148 448.067 153.775 419.339 165.101 392.471C169.543 382.137 174.652 372.217 180.648 362.503L183.091 358.576L187.978 358.163C197.528 357.543 212.63 355.682 229.732 349.895C254.607 341.628 274.818 328.401 289.92 310.627C301.692 296.779 309.909 280.865 314.351 263.091L294.362 197.781L313.241 186L318.571 189.72C330.786 198.194 343.668 206.254 356.994 213.075C365.434 217.622 374.318 221.755 383.201 225.475C400.303 224.855 417.627 223.202 434.506 220.929C455.605 218.035 476.705 214.108 497.36 208.941L505.799 206.874L508.687 214.728C513.795 229.196 516.016 244.076 515.128 259.164C514.461 273.425 510.908 287.272 504.911 300.293L487.81 293.472C492.918 282.312 495.805 270.325 496.471 258.131C497.138 248.003 496.027 237.876 493.362 227.956C474.928 232.296 456.05 235.809 437.171 238.289C418.959 240.77 400.303 242.216 381.647 243.043H379.426L377.427 242.216C367.433 237.876 357.438 233.329 347.666 228.162C337.449 222.789 327.233 216.795 317.461 210.388L333.896 262.677L333.452 264.744C328.343 286.032 318.793 305.046 304.801 321.374C287.477 341.835 264.379 356.716 236.173 366.223C219.738 371.597 205.079 374.077 194.418 375.11C189.976 382.757 185.979 390.818 182.425 398.878C171.987 423.679 166.656 450.134 166.656 477.622Z" fill="url(#paint10_linear_13_299)" fill-opacity="0.5"/>
<path d="M216.406 477.622V474.109C216.406 465.428 218.849 458.815 223.513 454.681C230.843 448.481 241.725 448.894 242.392 448.894H242.614H376.539H376.983H377.649C378.315 448.894 387.199 448.274 393.64 453.854C399.193 458.608 402.08 466.462 402.08 477.622H420.736C420.736 461.295 415.628 448.894 405.856 440.627C394.084 430.913 379.648 431.327 376.094 431.533H243.724C240.393 431.327 223.735 431.12 211.076 441.66C202.192 449.101 197.75 460.055 197.75 473.902V477.416H216.406V477.622Z" fill="url(#paint11_linear_13_299)" fill-opacity="0.5"/>
<path d="M436.727 354.029C449.165 393.711 454.939 435.253 454.273 477.622H472.929C473.595 433.6 467.377 390.404 454.717 349.069C452.052 340.595 449.165 332.121 445.833 323.854L485.811 339.148L492.918 323.027L437.838 301.946L423.401 317.86L425.4 322.614C429.62 332.948 433.396 343.489 436.727 354.029Z" fill="url(#paint12_linear_13_299)" fill-opacity="0.5"/>
</g>
<g style="mix-blend-mode:overlay">
<path d="M166.656 477.622H148C148 448.067 153.775 419.339 165.101 392.471C169.543 382.137 174.652 372.217 180.648 362.503L183.091 358.576L187.978 358.163C197.528 357.543 212.63 355.682 229.732 349.895C254.607 341.628 274.818 328.401 289.92 310.627C301.692 296.779 309.909 280.865 314.351 263.091L294.362 197.781L313.241 186L318.571 189.72C330.786 198.194 343.668 206.254 356.994 213.075C365.434 217.622 374.318 221.755 383.201 225.475C400.303 224.855 417.627 223.202 434.506 220.929C455.605 218.035 476.705 214.108 497.36 208.941L505.799 206.874L508.687 214.728C513.795 229.196 516.016 244.076 515.128 259.164C514.461 273.425 510.908 287.272 504.911 300.293L487.81 293.472C492.918 282.312 495.805 270.325 496.471 258.131C497.138 248.003 496.027 237.876 493.362 227.956C474.928 232.296 456.05 235.809 437.171 238.289C418.959 240.77 400.303 242.216 381.647 243.043H379.426L377.427 242.216C367.433 237.876 357.438 233.329 347.666 228.162C337.449 222.789 327.233 216.795 317.461 210.388L333.896 262.677L333.452 264.744C328.343 286.032 318.793 305.046 304.801 321.374C287.477 341.835 264.379 356.716 236.173 366.223C219.738 371.597 205.079 374.077 194.418 375.11C189.976 382.757 185.979 390.818 182.425 398.878C171.987 423.679 166.656 450.134 166.656 477.622Z" fill="url(#paint13_linear_13_299)" fill-opacity="0.5"/>
<path d="M216.406 477.622V474.109C216.406 465.428 218.849 458.815 223.513 454.681C230.843 448.481 241.725 448.894 242.392 448.894H242.614H376.539H376.983H377.649C378.315 448.894 387.199 448.274 393.64 453.854C399.193 458.608 402.08 466.462 402.08 477.622H420.736C420.736 461.295 415.628 448.894 405.856 440.627C394.084 430.913 379.648 431.327 376.094 431.533H243.724C240.393 431.327 223.735 431.12 211.076 441.66C202.192 449.101 197.75 460.055 197.75 473.902V477.416H216.406V477.622Z" fill="url(#paint14_linear_13_299)" fill-opacity="0.5"/>
<path d="M436.727 354.029C449.165 393.711 454.939 435.253 454.273 477.622H472.929C473.595 433.6 467.377 390.404 454.717 349.069C452.052 340.595 449.165 332.121 445.833 323.854L485.811 339.148L492.918 323.027L437.838 301.946L423.401 317.86L425.4 322.614C429.62 332.948 433.396 343.489 436.727 354.029Z" fill="url(#paint15_linear_13_299)" fill-opacity="0.5"/>
</g>
<g style="mix-blend-mode:overlay">
<path d="M166.656 477.622H148C148 448.067 153.775 419.339 165.101 392.471C169.543 382.137 174.652 372.217 180.648 362.503L183.091 358.576L187.978 358.163C197.528 357.543 212.63 355.682 229.732 349.895C254.607 341.628 274.818 328.401 289.92 310.627C301.692 296.779 309.909 280.865 314.351 263.091L294.362 197.781L313.241 186L318.571 189.72C330.786 198.194 343.668 206.254 356.994 213.075C365.434 217.622 374.318 221.755 383.201 225.475C400.303 224.855 417.627 223.202 434.506 220.929C455.605 218.035 476.705 214.108 497.36 208.941L505.799 206.874L508.687 214.728C513.795 229.196 516.016 244.076 515.128 259.164C514.461 273.425 510.908 287.272 504.911 300.293L487.81 293.472C492.918 282.312 495.805 270.325 496.471 258.131C497.138 248.003 496.027 237.876 493.362 227.956C474.928 232.296 456.05 235.809 437.171 238.289C418.959 240.77 400.303 242.216 381.647 243.043H379.426L377.427 242.216C367.433 237.876 357.438 233.329 347.666 228.162C337.449 222.789 327.233 216.795 317.461 210.388L333.896 262.677L333.452 264.744C328.343 286.032 318.793 305.046 304.801 321.374C287.477 341.835 264.379 356.716 236.173 366.223C219.738 371.597 205.079 374.077 194.418 375.11C189.976 382.757 185.979 390.818 182.425 398.878C171.987 423.679 166.656 450.134 166.656 477.622Z" fill="url(#paint16_linear_13_299)" fill-opacity="0.5"/>
<path d="M216.406 477.622V474.109C216.406 465.428 218.849 458.815 223.513 454.681C230.843 448.481 241.725 448.894 242.392 448.894H242.614H376.539H376.983H377.649C378.315 448.894 387.199 448.274 393.64 453.854C399.193 458.608 402.08 466.462 402.08 477.622H420.736C420.736 461.295 415.628 448.894 405.856 440.627C394.084 430.913 379.648 431.327 376.094 431.533H243.724C240.393 431.327 223.735 431.12 211.076 441.66C202.192 449.101 197.75 460.055 197.75 473.902V477.416H216.406V477.622Z" fill="url(#paint17_linear_13_299)" fill-opacity="0.5"/>
<path d="M436.727 354.029C449.165 393.711 454.939 435.253 454.273 477.622H472.929C473.595 433.6 467.377 390.404 454.717 349.069C452.052 340.595 449.165 332.121 445.833 323.854L485.811 339.148L492.918 323.027L437.838 301.946L423.401 317.86L425.4 322.614C429.62 332.948 433.396 343.489 436.727 354.029Z" fill="url(#paint18_linear_13_299)" fill-opacity="0.5"/>
</g>
</g>
<defs>
<linearGradient id="paint0_linear_13_299" x1="149.5" y1="113.5" x2="332" y2="591" gradientUnits="userSpaceOnUse">
<stop stop-color="#009DE2"/>
<stop offset="0.446493" stop-color="#070EB8" stop-opacity="0.96"/>
<stop offset="0.982983" stop-color="#8233D1"/>
</linearGradient>
<linearGradient id="paint1_linear_13_299" x1="170" y1="101" x2="558.5" y2="608.5" gradientUnits="userSpaceOnUse">
<stop stop-color="#732FCE"/>
<stop offset="1" stop-color="#24ECFD"/>
</linearGradient>
<linearGradient id="paint2_linear_13_299" x1="124.34" y1="35.8919" x2="622.34" y2="686.432" gradientUnits="userSpaceOnUse">
<stop stop-color="#732FCE"/>
<stop offset="1" stop-color="#24ECFD"/>
</linearGradient>
<linearGradient id="paint3_linear_13_299" x1="147.67" y1="68.946" x2="590.92" y2="647.966" gradientUnits="userSpaceOnUse">
<stop stop-color="#732FCE"/>
<stop offset="1" stop-color="#24ECFD"/>
</linearGradient>
<linearGradient id="paint4_linear_13_299" x1="331.659" y1="186" x2="331.659" y2="477.622" gradientUnits="userSpaceOnUse">
<stop stop-color="#D5F2FF"/>
<stop offset="1" stop-color="#28BDFF" stop-opacity="0.14"/>
</linearGradient>
<linearGradient id="paint5_linear_13_299" x1="309.243" y1="431.46" x2="309.243" y2="477.622" gradientUnits="userSpaceOnUse">
<stop stop-color="#D5F2FF"/>
<stop offset="1" stop-color="#28BDFF" stop-opacity="0.14"/>
</linearGradient>
<linearGradient id="paint6_linear_13_299" x1="458.16" y1="301.946" x2="458.16" y2="477.622" gradientUnits="userSpaceOnUse">
<stop stop-color="#D5F2FF"/>
<stop offset="1" stop-color="#28BDFF" stop-opacity="0.14"/>
</linearGradient>
<linearGradient id="paint7_linear_13_299" x1="331.659" y1="186" x2="331.659" y2="477.622" gradientUnits="userSpaceOnUse">
<stop stop-color="#D5F2FF"/>
<stop offset="1" stop-color="#28BDFF" stop-opacity="0.14"/>
</linearGradient>
<linearGradient id="paint8_linear_13_299" x1="309.243" y1="431.46" x2="309.243" y2="477.622" gradientUnits="userSpaceOnUse">
<stop stop-color="#D5F2FF"/>
<stop offset="1" stop-color="#28BDFF" stop-opacity="0.14"/>
</linearGradient>
<linearGradient id="paint9_linear_13_299" x1="458.16" y1="301.946" x2="458.16" y2="477.622" gradientUnits="userSpaceOnUse">
<stop stop-color="#D5F2FF"/>
<stop offset="1" stop-color="#28BDFF" stop-opacity="0.14"/>
</linearGradient>
<linearGradient id="paint10_linear_13_299" x1="331.659" y1="186" x2="331.659" y2="477.622" gradientUnits="userSpaceOnUse">
<stop stop-color="#D5F2FF"/>
<stop offset="1" stop-color="#28BDFF" stop-opacity="0.14"/>
</linearGradient>
<linearGradient id="paint11_linear_13_299" x1="309.243" y1="431.46" x2="309.243" y2="477.622" gradientUnits="userSpaceOnUse">
<stop stop-color="#D5F2FF"/>
<stop offset="1" stop-color="#28BDFF" stop-opacity="0.14"/>
</linearGradient>
<linearGradient id="paint12_linear_13_299" x1="458.16" y1="301.946" x2="458.16" y2="477.622" gradientUnits="userSpaceOnUse">
<stop stop-color="#D5F2FF"/>
<stop offset="1" stop-color="#28BDFF" stop-opacity="0.14"/>
</linearGradient>
<linearGradient id="paint13_linear_13_299" x1="331.659" y1="186" x2="331.659" y2="477.622" gradientUnits="userSpaceOnUse">
<stop stop-color="#D5F2FF"/>
<stop offset="1" stop-color="#28BDFF" stop-opacity="0.14"/>
</linearGradient>
<linearGradient id="paint14_linear_13_299" x1="309.243" y1="431.46" x2="309.243" y2="477.622" gradientUnits="userSpaceOnUse">
<stop stop-color="#D5F2FF"/>
<stop offset="1" stop-color="#28BDFF" stop-opacity="0.14"/>
</linearGradient>
<linearGradient id="paint15_linear_13_299" x1="458.16" y1="301.946" x2="458.16" y2="477.622" gradientUnits="userSpaceOnUse">
<stop stop-color="#D5F2FF"/>
<stop offset="1" stop-color="#28BDFF" stop-opacity="0.14"/>
</linearGradient>
<linearGradient id="paint16_linear_13_299" x1="331.659" y1="186" x2="331.659" y2="477.622" gradientUnits="userSpaceOnUse">
<stop stop-color="#D5F2FF"/>
<stop offset="1" stop-color="#28BDFF" stop-opacity="0.14"/>
</linearGradient>
<linearGradient id="paint17_linear_13_299" x1="309.243" y1="431.46" x2="309.243" y2="477.622" gradientUnits="userSpaceOnUse">
<stop stop-color="#D5F2FF"/>
<stop offset="1" stop-color="#28BDFF" stop-opacity="0.14"/>
</linearGradient>
<linearGradient id="paint18_linear_13_299" x1="458.16" y1="301.946" x2="458.16" y2="477.622" gradientUnits="userSpaceOnUse">
<stop stop-color="#D5F2FF"/>
<stop offset="1" stop-color="#28BDFF" stop-opacity="0.14"/>
</linearGradient>
</defs>
</svg>
